<mxfile host="drawio-plugin" modified="2021-10-20T06:45:13.294Z" agent="5.0 (X11; Linux x86_64) AppleWebKit/537.36 (KHTML, like Gecko) Chrome/87.0.4280.141 Safari/537.36" etag="2NCoPE_qgGoEhVFXiHch" version="14.7.4" type="embed" pages="2"><diagram id="ULkQnrne7PKiLcyMcCj-" name="real"><mxGraphModel dx="1424" dy="747" grid="1" gridSize="10" guides="1" tooltips="1" connect="1" arrows="1" fold="1" page="1" pageScale="1" pageWidth="850" pageHeight="1100" math="0" shadow="0"><root><mxCell id="0"/><mxCell id="1" parent="0"/><mxCell id="2" value="build" style="rounded=0;whiteSpace=wrap;html=1;" parent="1" vertex="1"><mxGeometry x="600" y="80" width="120" height="40" as="geometry"/></mxCell><mxCell id="3" value="run unit tests" style="rounded=0;whiteSpace=wrap;html=1;" parent="1" vertex="1"><mxGeometry x="880" y="80" width="120" height="40" as="geometry"/></mxCell><mxCell id="4" value="run integration tests" style="rounded=0;whiteSpace=wrap;html=1;" parent="1" vertex="1"><mxGeometry x="1320" y="80" width="120" height="40" as="geometry"/></mxCell><mxCell id="5" value="push to artifactory" style="rounded=0;whiteSpace=wrap;html=1;" parent="1" vertex="1"><mxGeometry x="1480" y="80" width="120" height="40" as="geometry"/></mxCell><mxCell id="6" value="build docker image and run" style="rounded=0;whiteSpace=wrap;html=1;" parent="1" vertex="1"><mxGeometry x="2040" y="80" width="120" height="40" as="geometry"/></mxCell><mxCell id="7" value="push to docker hub" style="rounded=0;whiteSpace=wrap;html=1;" parent="1" vertex="1"><mxGeometry x="2360" y="80" width="120" height="40" as="geometry"/></mxCell><mxCell id="8" value="push to test env" style="rounded=0;whiteSpace=wrap;html=1;" parent="1" vertex="1"><mxGeometry x="2640" y="80" width="120" height="40" as="geometry"/></mxCell><mxCell id="10" value="test env - backend" style="rounded=0;whiteSpace=wrap;html=1;fillColor=#ffcd28;strokeColor=#d79b00;fontStyle=1;gradientColor=#ffa500;shadow=1;" parent="1" vertex="1"><mxGeometry x="40" y="20" width="120" height="40" as="geometry"/></mxCell><mxCell id="11" value="prod env" style="rounded=0;whiteSpace=wrap;html=1;fillColor=#ffcd28;strokeColor=#d79b00;fontStyle=1;gradientColor=#ffa500;shadow=1;" parent="1" vertex="1"><mxGeometry x="40" y="1160" width="120" height="40" as="geometry"/></mxCell><mxCell id="12" value="deploy to prod env" style="rounded=0;whiteSpace=wrap;html=1;" parent="1" vertex="1"><mxGeometry x="40" y="1240" width="120" height="40" as="geometry"/></mxCell><mxCell id="13" value="app-server-1.0.jar" style="rounded=0;whiteSpace=wrap;html=1;fillColor=#d5e8d4;strokeColor=#82b366;" parent="1" vertex="1"><mxGeometry x="600" y="240" width="120" height="40" as="geometry"/></mxCell><mxCell id="14" value="artifactory" style="rounded=0;whiteSpace=wrap;html=1;fillColor=#dae8fc;strokeColor=#6c8ebf;" parent="1" vertex="1"><mxGeometry x="1480" y="240" width="120" height="40" as="geometry"/></mxCell><mxCell id="15" value="docker hub" style="rounded=0;whiteSpace=wrap;html=1;fillColor=#dae8fc;strokeColor=#6c8ebf;" parent="1" vertex="1"><mxGeometry x="2360" y="240" width="120" height="40" as="geometry"/></mxCell><mxCell id="16" value="remote" style="rounded=0;whiteSpace=wrap;html=1;" parent="1" vertex="1"><mxGeometry x="320" y="80" width="120" height="40" as="geometry"/></mxCell><mxCell id="17" value="local" style="rounded=0;whiteSpace=wrap;html=1;" parent="1" vertex="1"><mxGeometry x="40" y="80" width="120" height="40" as="geometry"/></mxCell><mxCell id="18" value="git local repository" style="rounded=0;whiteSpace=wrap;html=1;fillColor=#dae8fc;strokeColor=#6c8ebf;" parent="1" vertex="1"><mxGeometry x="40" y="240" width="120" height="40" as="geometry"/></mxCell><mxCell id="19" value="github repository" style="rounded=0;whiteSpace=wrap;html=1;fillColor=#dae8fc;strokeColor=#6c8ebf;" parent="1" vertex="1"><mxGeometry x="320" y="240" width="120" height="40" as="geometry"/></mxCell><mxCell id="21" value="app-server-1.0 image" style="rounded=0;whiteSpace=wrap;html=1;fillColor=#d5e8d4;strokeColor=#82b366;" parent="1" vertex="1"><mxGeometry x="2040" y="240" width="120" height="40" as="geometry"/></mxCell><mxCell id="22" value="app-server-1.0.jar" style="rounded=0;whiteSpace=wrap;html=1;fillColor=#d5e8d4;strokeColor=#82b366;" parent="1" vertex="1"><mxGeometry x="1480" y="280" width="120" height="40" as="geometry"/></mxCell><mxCell id="23" value="app-server-1.0 image" style="rounded=0;whiteSpace=wrap;html=1;fillColor=#d5e8d4;strokeColor=#82b366;" parent="1" vertex="1"><mxGeometry x="2360" y="280" width="120" height="40" as="geometry"/></mxCell><mxCell id="24" value="test env" style="rounded=0;whiteSpace=wrap;html=1;fillColor=#e1d5e7;strokeColor=#9673a6;" parent="1" vertex="1"><mxGeometry x="2640" y="240" width="120" height="40" as="geometry"/></mxCell><mxCell id="25" value="artifactory" style="rounded=0;whiteSpace=wrap;html=1;fillColor=#dae8fc;strokeColor=#6c8ebf;" parent="1" vertex="1"><mxGeometry x="2640" y="280" width="120" height="40" as="geometry"/></mxCell><mxCell id="26" value="app-server-1.0.jar" style="rounded=0;whiteSpace=wrap;html=1;fillColor=#d5e8d4;strokeColor=#82b366;" parent="1" vertex="1"><mxGeometry x="2880" y="280" width="120" height="40" as="geometry"/></mxCell><mxCell id="27" value="docker" style="rounded=0;whiteSpace=wrap;html=1;fillColor=#dae8fc;strokeColor=#6c8ebf;" parent="1" vertex="1"><mxGeometry x="2640" y="320" width="120" height="40" as="geometry"/></mxCell><mxCell id="28" value="app-server-1.0 image" style="rounded=0;whiteSpace=wrap;html=1;fillColor=#d5e8d4;strokeColor=#82b366;" parent="1" vertex="1"><mxGeometry x="2880" y="320" width="120" height="40" as="geometry"/></mxCell><mxCell id="29" value="git" style="rounded=0;whiteSpace=wrap;html=1;fillColor=#dae8fc;strokeColor=#6c8ebf;" parent="1" vertex="1"><mxGeometry x="2640" y="360" width="120" height="40" as="geometry"/></mxCell><mxCell id="30" value="mysql" style="rounded=0;whiteSpace=wrap;html=1;fillColor=#dae8fc;strokeColor=#6c8ebf;" parent="1" vertex="1"><mxGeometry x="2640" y="440" width="120" height="40" as="geometry"/></mxCell><mxCell id="31" value="java jre" style="rounded=0;whiteSpace=wrap;html=1;fillColor=#dae8fc;strokeColor=#6c8ebf;" parent="1" vertex="1"><mxGeometry x="2640" y="400" width="120" height="40" as="geometry"/></mxCell><mxCell id="33" value="prod env" style="rounded=0;whiteSpace=wrap;html=1;fillColor=#e1d5e7;strokeColor=#9673a6;" parent="1" vertex="1"><mxGeometry x="40" y="1320" width="120" height="40" as="geometry"/></mxCell><mxCell id="34" value="docker" style="rounded=0;whiteSpace=wrap;html=1;fillColor=#dae8fc;strokeColor=#6c8ebf;" parent="1" vertex="1"><mxGeometry x="40" y="1360" width="120" height="40" as="geometry"/></mxCell><mxCell id="35" value="app image" style="rounded=0;whiteSpace=wrap;html=1;fillColor=#d5e8d4;strokeColor=#82b366;" parent="1" vertex="1"><mxGeometry x="160" y="1360" width="120" height="40" as="geometry"/></mxCell><mxCell id="36" value="git" style="rounded=0;whiteSpace=wrap;html=1;fillColor=#dae8fc;strokeColor=#6c8ebf;" parent="1" vertex="1"><mxGeometry x="40" y="1400" width="120" height="40" as="geometry"/></mxCell><mxCell id="37" value="mysql" style="rounded=0;whiteSpace=wrap;html=1;fillColor=#dae8fc;strokeColor=#6c8ebf;" parent="1" vertex="1"><mxGeometry x="40" y="1440" width="120" height="40" as="geometry"/></mxCell><mxCell id="38" value="java jre" style="rounded=0;whiteSpace=wrap;html=1;fillColor=#dae8fc;strokeColor=#6c8ebf;" parent="1" vertex="1"><mxGeometry x="40" y="1480" width="120" height="40" as="geometry"/></mxCell><mxCell id="39" value="firewall" style="rounded=0;whiteSpace=wrap;html=1;fillColor=#dae8fc;strokeColor=#6c8ebf;" parent="1" vertex="1"><mxGeometry x="40" y="1720" width="120" height="40" as="geometry"/></mxCell><mxCell id="40" value="nginx" style="rounded=0;whiteSpace=wrap;html=1;fillColor=#dae8fc;strokeColor=#6c8ebf;" parent="1" vertex="1"><mxGeometry x="40" y="1760" width="120" height="40" as="geometry"/></mxCell><mxCell id="41" value="ssl certificate" style="rounded=0;whiteSpace=wrap;html=1;fillColor=#d5e8d4;strokeColor=#82b366;" parent="1" vertex="1"><mxGeometry x="40" y="1840" width="120" height="40" as="geometry"/></mxCell><mxCell id="42" value="jenkins" style="rounded=0;whiteSpace=wrap;html=1;fillColor=#dae8fc;strokeColor=#6c8ebf;" parent="1" vertex="1"><mxGeometry x="2640" y="480" width="120" height="40" as="geometry"/></mxCell><mxCell id="44" value="build automation tool" style="rounded=0;whiteSpace=wrap;html=1;fillColor=#f5f5f5;strokeColor=#666666;fontColor=#333333;" parent="1" vertex="1"><mxGeometry x="2760" y="480" width="120" height="40" as="geometry"/></mxCell><mxCell id="45" value="write java code" style="rounded=0;whiteSpace=wrap;html=1;fillColor=#f5f5f5;strokeColor=#666666;fontColor=#333333;" parent="1" vertex="1"><mxGeometry x="160" y="360" width="120" height="40" as="geometry"/></mxCell><mxCell id="46" value="database" style="rounded=0;whiteSpace=wrap;html=1;fillColor=#f5f5f5;strokeColor=#666666;fontColor=#333333;" parent="1" vertex="1"><mxGeometry x="160" y="400" width="120" height="40" as="geometry"/></mxCell><mxCell id="48" value="mysql" style="rounded=0;whiteSpace=wrap;html=1;fillColor=#dae8fc;strokeColor=#6c8ebf;" parent="1" vertex="1"><mxGeometry x="2040" y="320" width="120" height="40" as="geometry"/></mxCell><mxCell id="49" value="java" style="rounded=0;whiteSpace=wrap;html=1;fillColor=#dae8fc;strokeColor=#6c8ebf;" parent="1" vertex="1"><mxGeometry x="2040" y="280" width="120" height="40" as="geometry"/></mxCell><mxCell id="50" value="container manager" style="rounded=0;whiteSpace=wrap;html=1;fillColor=#f5f5f5;strokeColor=#666666;fontColor=#333333;" parent="1" vertex="1"><mxGeometry x="2760" y="320" width="120" height="40" as="geometry"/></mxCell><mxCell id="51" value="artifact repository" style="rounded=0;whiteSpace=wrap;html=1;fillColor=#f5f5f5;strokeColor=#666666;fontColor=#333333;" parent="1" vertex="1"><mxGeometry x="1600" y="240" width="120" height="40" as="geometry"/></mxCell><mxCell id="53" value="code repository" style="rounded=0;whiteSpace=wrap;html=1;fillColor=#f5f5f5;strokeColor=#666666;fontColor=#333333;" parent="1" vertex="1"><mxGeometry x="440" y="240" width="120" height="40" as="geometry"/></mxCell><mxCell id="54" value="app-server-1.0 code" style="rounded=0;whiteSpace=wrap;html=1;fillColor=#d5e8d4;strokeColor=#82b366;" parent="1" vertex="1"><mxGeometry x="40" y="280" width="120" height="40" as="geometry"/></mxCell><mxCell id="55" value="app-server-1.0 code" style="rounded=0;whiteSpace=wrap;html=1;fillColor=#d5e8d4;strokeColor=#82b366;" parent="1" vertex="1"><mxGeometry x="320" y="280" width="120" height="40" as="geometry"/></mxCell><mxCell id="59" value="java archive" style="rounded=0;whiteSpace=wrap;html=1;fillColor=#f5f5f5;strokeColor=#666666;fontColor=#333333;" parent="1" vertex="1"><mxGeometry x="720" y="240" width="120" height="40" as="geometry"/></mxCell><mxCell id="61" value="image repository" style="rounded=0;whiteSpace=wrap;html=1;fillColor=#f5f5f5;strokeColor=#666666;fontColor=#333333;" parent="1" vertex="1"><mxGeometry x="2480" y="240" width="120" height="40" as="geometry"/></mxCell><mxCell id="63" value="mysql" style="rounded=0;whiteSpace=wrap;html=1;fillColor=#dae8fc;strokeColor=#6c8ebf;" parent="1" vertex="1"><mxGeometry x="40" y="400" width="120" height="40" as="geometry"/></mxCell><mxCell id="64" value="java sdk" style="rounded=0;whiteSpace=wrap;html=1;fillColor=#dae8fc;strokeColor=#6c8ebf;" parent="1" vertex="1"><mxGeometry x="40" y="360" width="120" height="40" as="geometry"/></mxCell><mxCell id="65" value="version control system" style="rounded=0;whiteSpace=wrap;html=1;fillColor=#f5f5f5;strokeColor=#666666;fontColor=#333333;" parent="1" vertex="1"><mxGeometry x="160" y="240" width="120" height="40" as="geometry"/></mxCell><mxCell id="66" value="intellij" style="rounded=0;whiteSpace=wrap;html=1;fillColor=#dae8fc;strokeColor=#6c8ebf;" parent="1" vertex="1"><mxGeometry x="40" y="560" width="120" height="40" as="geometry"/></mxCell><mxCell id="67" value="java ide" style="rounded=0;whiteSpace=wrap;html=1;fillColor=#f5f5f5;strokeColor=#666666;fontColor=#333333;" parent="1" vertex="1"><mxGeometry x="160" y="560" width="120" height="40" as="geometry"/></mxCell><mxCell id="68" value="maven" style="rounded=0;whiteSpace=wrap;html=1;fillColor=#dae8fc;strokeColor=#6c8ebf;" parent="1" vertex="1"><mxGeometry x="40" y="520" width="120" height="40" as="geometry"/></mxCell><mxCell id="70" value="build tool" style="rounded=0;whiteSpace=wrap;html=1;fillColor=#f5f5f5;strokeColor=#666666;fontColor=#333333;" parent="1" vertex="1"><mxGeometry x="160" y="520" width="120" height="40" as="geometry"/></mxCell><mxCell id="71" value="mvn test" style="rounded=0;whiteSpace=wrap;html=1;fillColor=#ffe6cc;strokeColor=#d79b00;" parent="1" vertex="1"><mxGeometry x="880" y="160" width="120" height="40" as="geometry"/></mxCell><mxCell id="72" value="mvn integrationTest" style="rounded=0;whiteSpace=wrap;html=1;fillColor=#ffe6cc;strokeColor=#d79b00;" parent="1" vertex="1"><mxGeometry x="1320" y="160" width="120" height="40" as="geometry"/></mxCell><mxCell id="73" value="mvn clean install" style="rounded=0;whiteSpace=wrap;html=1;fillColor=#ffe6cc;strokeColor=#d79b00;" parent="1" vertex="1"><mxGeometry x="600" y="160" width="120" height="40" as="geometry"/></mxCell><mxCell id="74" value="docker push" style="rounded=0;whiteSpace=wrap;html=1;fillColor=#ffe6cc;strokeColor=#d79b00;" parent="1" vertex="1"><mxGeometry x="2360" y="160" width="120" height="40" as="geometry"/></mxCell><mxCell id="75" value="docker compose up build" style="rounded=0;whiteSpace=wrap;html=1;fillColor=#ffe6cc;strokeColor=#d79b00;" parent="1" vertex="1"><mxGeometry x="2040" y="160" width="120" height="40" as="geometry"/></mxCell><mxCell id="76" value="load balancer + &lt;br&gt;http server" style="rounded=0;whiteSpace=wrap;html=1;fillColor=#f5f5f5;strokeColor=#666666;fontColor=#333333;" parent="1" vertex="1"><mxGeometry x="160" y="1760" width="120" height="40" as="geometry"/></mxCell><mxCell id="77" value="git push" style="rounded=0;whiteSpace=wrap;html=1;fillColor=#ffe6cc;strokeColor=#d79b00;" parent="1" vertex="1"><mxGeometry x="320" y="160" width="120" height="40" as="geometry"/></mxCell><mxCell id="78" value="git commit" style="rounded=0;whiteSpace=wrap;html=1;fillColor=#ffe6cc;strokeColor=#d79b00;" parent="1" vertex="1"><mxGeometry x="40" y="160" width="120" height="40" as="geometry"/></mxCell><mxCell id="79" value="Jenkinsfile" style="rounded=0;whiteSpace=wrap;html=1;fillColor=#d5e8d4;strokeColor=#82b366;" parent="1" vertex="1"><mxGeometry x="2640" y="520" width="120" height="40" as="geometry"/></mxCell><mxCell id="80" value="command" style="rounded=0;whiteSpace=wrap;html=1;fillColor=#ffe6cc;strokeColor=#d79b00;" parent="1" vertex="1"><mxGeometry x="640" y="1320" width="120" height="40" as="geometry"/></mxCell><mxCell id="81" value="software" style="rounded=0;whiteSpace=wrap;html=1;fillColor=#dae8fc;strokeColor=#6c8ebf;" parent="1" vertex="1"><mxGeometry x="640" y="1280" width="120" height="40" as="geometry"/></mxCell><mxCell id="82" value="artifact" style="rounded=0;whiteSpace=wrap;html=1;fillColor=#d5e8d4;strokeColor=#82b366;" parent="1" vertex="1"><mxGeometry x="640" y="1360" width="120" height="40" as="geometry"/></mxCell><mxCell id="83" value="server" style="rounded=0;whiteSpace=wrap;html=1;fillColor=#e1d5e7;strokeColor=#9673a6;" parent="1" vertex="1"><mxGeometry x="640" y="1240" width="120" height="40" as="geometry"/></mxCell><mxCell id="84" value="legend" style="rounded=0;whiteSpace=wrap;html=1;" parent="1" vertex="1"><mxGeometry x="640" y="1200" width="120" height="40" as="geometry"/></mxCell><mxCell id="85" value="cp source dest" style="rounded=0;whiteSpace=wrap;html=1;fillColor=#ffe6cc;strokeColor=#d79b00;" parent="1" vertex="1"><mxGeometry x="2640" y="160" width="120" height="40" as="geometry"/></mxCell><mxCell id="86" value="mvn clean package" style="rounded=0;whiteSpace=wrap;html=1;fillColor=#ffe6cc;strokeColor=#d79b00;" parent="1" vertex="1"><mxGeometry x="1480" y="160" width="120" height="40" as="geometry"/></mxCell><mxCell id="87" value="ssh key" style="rounded=0;whiteSpace=wrap;html=1;fillColor=#d5e8d4;strokeColor=#82b366;" parent="1" vertex="1"><mxGeometry x="40" y="1880" width="120" height="40" as="geometry"/></mxCell><mxCell id="88" value="ssh key" style="rounded=0;whiteSpace=wrap;html=1;fillColor=#d5e8d4;strokeColor=#82b366;" parent="1" vertex="1"><mxGeometry x="2640" y="600" width="120" height="40" as="geometry"/></mxCell><mxCell id="89" value="access credentials" style="rounded=0;whiteSpace=wrap;html=1;fillColor=#f5f5f5;strokeColor=#666666;fontColor=#333333;" parent="1" vertex="1"><mxGeometry x="2760" y="600" width="120" height="40" as="geometry"/></mxCell><mxCell id="90" value="host software" style="rounded=0;whiteSpace=wrap;html=1;fillColor=#f5f5f5;strokeColor=#666666;fontColor=#333333;" parent="1" vertex="1"><mxGeometry x="760" y="1240" width="120" height="40" as="geometry"/></mxCell><mxCell id="91" value="run commands" style="rounded=0;whiteSpace=wrap;html=1;fillColor=#f5f5f5;strokeColor=#666666;fontColor=#333333;" parent="1" vertex="1"><mxGeometry x="760" y="1280" width="120" height="40" as="geometry"/></mxCell><mxCell id="92" value="build artifact" style="rounded=0;whiteSpace=wrap;html=1;fillColor=#f5f5f5;strokeColor=#666666;fontColor=#333333;" parent="1" vertex="1"><mxGeometry x="760" y="1320" width="120" height="40" as="geometry"/></mxCell><mxCell id="94" value="code coverage" style="rounded=0;whiteSpace=wrap;html=1;" parent="1" vertex="1"><mxGeometry x="1040" y="80" width="120" height="40" as="geometry"/></mxCell><mxCell id="95" value="jacoco" style="rounded=0;whiteSpace=wrap;html=1;fillColor=#dae8fc;strokeColor=#6c8ebf;" parent="1" vertex="1"><mxGeometry x="1040" y="240" width="120" height="40" as="geometry"/></mxCell><mxCell id="96" value="test coverage report" style="rounded=0;whiteSpace=wrap;html=1;fillColor=#d5e8d4;strokeColor=#82b366;" parent="1" vertex="1"><mxGeometry x="1040" y="280" width="120" height="40" as="geometry"/></mxCell><mxCell id="97" value="mvn jacocoTestReport" style="rounded=0;whiteSpace=wrap;html=1;fillColor=#ffe6cc;strokeColor=#d79b00;" parent="1" vertex="1"><mxGeometry x="1040" y="160" width="120" height="40" as="geometry"/></mxCell><mxCell id="98" value="code coverage tool" style="rounded=0;whiteSpace=wrap;html=1;fillColor=#f5f5f5;strokeColor=#666666;fontColor=#333333;" parent="1" vertex="1"><mxGeometry x="1160" y="240" width="120" height="40" as="geometry"/></mxCell><mxCell id="99" value="flyway" style="rounded=0;whiteSpace=wrap;html=1;fillColor=#dae8fc;strokeColor=#6c8ebf;" parent="1" vertex="1"><mxGeometry x="40" y="440" width="120" height="40" as="geometry"/></mxCell><mxCell id="100" value="db migration tool" style="rounded=0;whiteSpace=wrap;html=1;fillColor=#f5f5f5;strokeColor=#666666;fontColor=#333333;" parent="1" vertex="1"><mxGeometry x="160" y="440" width="120" height="40" as="geometry"/></mxCell><mxCell id="TMf7GeFNpjUwdygxCq6B-100" value="access credentials" style="rounded=0;whiteSpace=wrap;html=1;fillColor=#f5f5f5;strokeColor=#666666;fontColor=#333333;" parent="1" vertex="1"><mxGeometry x="160" y="1880" width="120" height="40" as="geometry"/></mxCell><mxCell id="TMf7GeFNpjUwdygxCq6B-101" value="enables https" style="rounded=0;whiteSpace=wrap;html=1;fillColor=#f5f5f5;strokeColor=#666666;fontColor=#333333;" parent="1" vertex="1"><mxGeometry x="160" y="1840" width="120" height="40" as="geometry"/></mxCell><mxCell id="TMf7GeFNpjUwdygxCq6B-102" value="deploy to prod env" style="rounded=0;whiteSpace=wrap;html=1;" parent="1" vertex="1"><mxGeometry x="320" y="1240" width="120" height="40" as="geometry"/></mxCell><mxCell id="TMf7GeFNpjUwdygxCq6B-103" value="docker compose up" style="rounded=0;whiteSpace=wrap;html=1;fillColor=#ffe6cc;strokeColor=#d79b00;" parent="1" vertex="1"><mxGeometry x="320" y="1320" width="120" height="40" as="geometry"/></mxCell><mxCell id="TMf7GeFNpjUwdygxCq6B-104" value="app-1.0 image" style="rounded=0;whiteSpace=wrap;html=1;fillColor=#d5e8d4;strokeColor=#82b366;" parent="1" vertex="1"><mxGeometry x="320" y="1400" width="120" height="40" as="geometry"/></mxCell><mxCell id="TMf7GeFNpjUwdygxCq6B-105" value="run application" style="rounded=0;whiteSpace=wrap;html=1;fillColor=#f5f5f5;strokeColor=#666666;fontColor=#333333;" parent="1" vertex="1"><mxGeometry x="440" y="1400" width="120" height="40" as="geometry"/></mxCell><mxCell id="TMf7GeFNpjUwdygxCq6B-106" value="node" style="rounded=0;whiteSpace=wrap;html=1;fillColor=#dae8fc;strokeColor=#6c8ebf;" parent="1" vertex="1"><mxGeometry x="40" y="920" width="120" height="40" as="geometry"/></mxCell><mxCell id="TMf7GeFNpjUwdygxCq6B-107" value="angular cli" style="rounded=0;whiteSpace=wrap;html=1;fillColor=#dae8fc;strokeColor=#6c8ebf;" parent="1" vertex="1"><mxGeometry x="40" y="1000" width="120" height="40" as="geometry"/></mxCell><mxCell id="TMf7GeFNpjUwdygxCq6B-108" value="frontend framework" style="rounded=0;whiteSpace=wrap;html=1;fillColor=#f5f5f5;strokeColor=#666666;fontColor=#333333;" parent="1" vertex="1"><mxGeometry x="160" y="1000" width="120" height="40" as="geometry"/></mxCell><mxCell id="TMf7GeFNpjUwdygxCq6B-110" value="yarn" style="rounded=0;whiteSpace=wrap;html=1;fillColor=#dae8fc;strokeColor=#6c8ebf;" parent="1" vertex="1"><mxGeometry x="40" y="960" width="120" height="40" as="geometry"/></mxCell><mxCell id="TMf7GeFNpjUwdygxCq6B-111" value="package manager" style="rounded=0;whiteSpace=wrap;html=1;fillColor=#f5f5f5;strokeColor=#666666;fontColor=#333333;" parent="1" vertex="1"><mxGeometry x="160" y="960" width="120" height="40" as="geometry"/></mxCell><mxCell id="TMf7GeFNpjUwdygxCq6B-112" value="js runtime" style="rounded=0;whiteSpace=wrap;html=1;fillColor=#f5f5f5;strokeColor=#666666;fontColor=#333333;" parent="1" vertex="1"><mxGeometry x="160" y="920" width="120" height="40" as="geometry"/></mxCell><mxCell id="TMf7GeFNpjUwdygxCq6B-113" value="vscode" style="rounded=0;whiteSpace=wrap;html=1;fillColor=#dae8fc;strokeColor=#6c8ebf;" parent="1" vertex="1"><mxGeometry x="40" y="1040" width="120" height="40" as="geometry"/></mxCell><mxCell id="TMf7GeFNpjUwdygxCq6B-114" value="angular ide" style="rounded=0;whiteSpace=wrap;html=1;fillColor=#f5f5f5;strokeColor=#666666;fontColor=#333333;" parent="1" vertex="1"><mxGeometry x="160" y="1040" width="120" height="40" as="geometry"/></mxCell><mxCell id="TMf7GeFNpjUwdygxCq6B-115" value="node" style="rounded=0;whiteSpace=wrap;html=1;fillColor=#dae8fc;strokeColor=#6c8ebf;" parent="1" vertex="1"><mxGeometry x="40" y="1560" width="120" height="40" as="geometry"/></mxCell><mxCell id="TMf7GeFNpjUwdygxCq6B-116" value="angular cli" style="rounded=0;whiteSpace=wrap;html=1;fillColor=#dae8fc;strokeColor=#6c8ebf;" parent="1" vertex="1"><mxGeometry x="40" y="1640" width="120" height="40" as="geometry"/></mxCell><mxCell id="TMf7GeFNpjUwdygxCq6B-117" value="npm" style="rounded=0;whiteSpace=wrap;html=1;fillColor=#dae8fc;strokeColor=#6c8ebf;" parent="1" vertex="1"><mxGeometry x="40" y="1600" width="120" height="40" as="geometry"/></mxCell><mxCell id="TMf7GeFNpjUwdygxCq6B-118" value="nginx conf" style="rounded=0;whiteSpace=wrap;html=1;fillColor=#d5e8d4;strokeColor=#82b366;" parent="1" vertex="1"><mxGeometry x="40" y="1800" width="120" height="40" as="geometry"/></mxCell><mxCell id="TMf7GeFNpjUwdygxCq6B-119" value="configuration" style="rounded=0;whiteSpace=wrap;html=1;fillColor=#f5f5f5;strokeColor=#666666;fontColor=#333333;" parent="1" vertex="1"><mxGeometry x="160" y="1800" width="120" height="40" as="geometry"/></mxCell><mxCell id="TMf7GeFNpjUwdygxCq6B-121" value="db migration files" style="rounded=0;whiteSpace=wrap;html=1;fillColor=#d5e8d4;strokeColor=#82b366;" parent="1" vertex="1"><mxGeometry x="40" y="480" width="120" height="40" as="geometry"/></mxCell><mxCell id="TMf7GeFNpjUwdygxCq6B-122" value="sql" style="rounded=0;whiteSpace=wrap;html=1;fillColor=#f5f5f5;strokeColor=#666666;fontColor=#333333;" parent="1" vertex="1"><mxGeometry x="160" y="480" width="120" height="40" as="geometry"/></mxCell><mxCell id="TMf7GeFNpjUwdygxCq6B-123" value="sonarqube" style="rounded=0;whiteSpace=wrap;html=1;fillColor=#dae8fc;strokeColor=#6c8ebf;" parent="1" vertex="1"><mxGeometry x="2640" y="560" width="120" height="40" as="geometry"/></mxCell><mxCell id="TMf7GeFNpjUwdygxCq6B-124" value="code analysis tool" style="rounded=0;whiteSpace=wrap;html=1;fillColor=#f5f5f5;strokeColor=#666666;fontColor=#333333;" parent="1" vertex="1"><mxGeometry x="1880" y="240" width="120" height="40" as="geometry"/></mxCell><mxCell id="TMf7GeFNpjUwdygxCq6B-125" value="run sonarqube" style="rounded=0;whiteSpace=wrap;html=1;" parent="1" vertex="1"><mxGeometry x="1760" y="80" width="120" height="40" as="geometry"/></mxCell><mxCell id="TMf7GeFNpjUwdygxCq6B-126" value="mvn sonar:sonar" style="rounded=0;whiteSpace=wrap;html=1;fillColor=#ffe6cc;strokeColor=#d79b00;" parent="1" vertex="1"><mxGeometry x="1760" y="160" width="120" height="40" as="geometry"/></mxCell><mxCell id="TMf7GeFNpjUwdygxCq6B-128" value="git commit" style="rounded=0;whiteSpace=wrap;html=1;fillColor=#ffe6cc;strokeColor=#d79b00;" parent="1" vertex="1"><mxGeometry x="40" y="840" width="120" height="40" as="geometry"/></mxCell><mxCell id="TMf7GeFNpjUwdygxCq6B-129" value="test env - frontend" style="rounded=0;whiteSpace=wrap;html=1;fillColor=#ffcd28;strokeColor=#d79b00;fontStyle=1;gradientColor=#ffa500;shadow=1;" parent="1" vertex="1"><mxGeometry x="40" y="680" width="120" height="40" as="geometry"/></mxCell><mxCell id="TMf7GeFNpjUwdygxCq6B-130" value="remote" style="rounded=0;whiteSpace=wrap;html=1;" parent="1" vertex="1"><mxGeometry x="320" y="760" width="120" height="40" as="geometry"/></mxCell><mxCell id="TMf7GeFNpjUwdygxCq6B-131" value="github repository" style="rounded=0;whiteSpace=wrap;html=1;fillColor=#dae8fc;strokeColor=#6c8ebf;" parent="1" vertex="1"><mxGeometry x="320" y="920" width="120" height="40" as="geometry"/></mxCell><mxCell id="TMf7GeFNpjUwdygxCq6B-132" value="code repository" style="rounded=0;whiteSpace=wrap;html=1;fillColor=#f5f5f5;strokeColor=#666666;fontColor=#333333;" parent="1" vertex="1"><mxGeometry x="440" y="920" width="120" height="40" as="geometry"/></mxCell><mxCell id="TMf7GeFNpjUwdygxCq6B-133" value="app-client-1.0 code" style="rounded=0;whiteSpace=wrap;html=1;fillColor=#d5e8d4;strokeColor=#82b366;" parent="1" vertex="1"><mxGeometry x="320" y="960" width="120" height="40" as="geometry"/></mxCell><mxCell id="TMf7GeFNpjUwdygxCq6B-134" value="git push" style="rounded=0;whiteSpace=wrap;html=1;fillColor=#ffe6cc;strokeColor=#d79b00;" parent="1" vertex="1"><mxGeometry x="320" y="840" width="120" height="40" as="geometry"/></mxCell><mxCell id="TMf7GeFNpjUwdygxCq6B-135" value="local" style="rounded=0;whiteSpace=wrap;html=1;fillColor=#e1d5e7;strokeColor=#9673a6;" parent="1" vertex="1"><mxGeometry x="40" y="760" width="120" height="40" as="geometry"/></mxCell><mxCell id="TMf7GeFNpjUwdygxCq6B-136" value="build" style="rounded=0;whiteSpace=wrap;html=1;" parent="1" vertex="1"><mxGeometry x="600" y="760" width="120" height="40" as="geometry"/></mxCell><mxCell id="TMf7GeFNpjUwdygxCq6B-137" value="dist" style="rounded=0;whiteSpace=wrap;html=1;fillColor=#d5e8d4;strokeColor=#82b366;" parent="1" vertex="1"><mxGeometry x="600" y="920" width="120" height="40" as="geometry"/></mxCell><mxCell id="TMf7GeFNpjUwdygxCq6B-138" value="minified bundle" style="rounded=0;whiteSpace=wrap;html=1;fillColor=#f5f5f5;strokeColor=#666666;fontColor=#333333;" parent="1" vertex="1"><mxGeometry x="720" y="920" width="120" height="40" as="geometry"/></mxCell><mxCell id="TMf7GeFNpjUwdygxCq6B-139" value="yarn build" style="rounded=0;whiteSpace=wrap;html=1;fillColor=#ffe6cc;strokeColor=#d79b00;" parent="1" vertex="1"><mxGeometry x="600" y="840" width="120" height="40" as="geometry"/></mxCell><mxCell id="TMf7GeFNpjUwdygxCq6B-140" value="production db" style="rounded=0;whiteSpace=wrap;html=1;fillColor=#f5f5f5;strokeColor=#666666;fontColor=#333333;" parent="1" vertex="1"><mxGeometry x="160" y="1440" width="120" height="40" as="geometry"/></mxCell><mxCell id="TMf7GeFNpjUwdygxCq6B-141" value="test db" style="rounded=0;whiteSpace=wrap;html=1;fillColor=#f5f5f5;strokeColor=#666666;fontColor=#333333;" parent="1" vertex="1"><mxGeometry x="2760" y="440" width="120" height="40" as="geometry"/></mxCell><mxCell id="TMf7GeFNpjUwdygxCq6B-142" value="run tests" style="rounded=0;whiteSpace=wrap;html=1;" parent="1" vertex="1"><mxGeometry x="880" y="760" width="120" height="40" as="geometry"/></mxCell><mxCell id="TMf7GeFNpjUwdygxCq6B-143" value="yarn test" style="rounded=0;whiteSpace=wrap;html=1;fillColor=#ffe6cc;strokeColor=#d79b00;" parent="1" vertex="1"><mxGeometry x="880" y="840" width="120" height="40" as="geometry"/></mxCell><mxCell id="TMf7GeFNpjUwdygxCq6B-144" value="functional tests" style="rounded=0;whiteSpace=wrap;html=1;" parent="1" vertex="1"><mxGeometry x="2200" y="80" width="120" height="40" as="geometry"/></mxCell><mxCell id="TMf7GeFNpjUwdygxCq6B-145" value="mvn functionalTests" style="rounded=0;whiteSpace=wrap;html=1;fillColor=#ffe6cc;strokeColor=#d79b00;" parent="1" vertex="1"><mxGeometry x="2200" y="160" width="120" height="40" as="geometry"/></mxCell><mxCell id="TMf7GeFNpjUwdygxCq6B-146" value="sonarqube" style="rounded=0;whiteSpace=wrap;html=1;fillColor=#dae8fc;strokeColor=#6c8ebf;" parent="1" vertex="1"><mxGeometry x="1760" y="240" width="120" height="40" as="geometry"/></mxCell><mxCell id="TMf7GeFNpjUwdygxCq6B-147" value="sonar report" style="rounded=0;whiteSpace=wrap;html=1;fillColor=#d5e8d4;strokeColor=#82b366;" parent="1" vertex="1"><mxGeometry x="1760" y="280" width="120" height="40" as="geometry"/></mxCell><mxCell id="TMf7GeFNpjUwdygxCq6B-148" value="html report" style="rounded=0;whiteSpace=wrap;html=1;fillColor=#f5f5f5;strokeColor=#666666;fontColor=#333333;" parent="1" vertex="1"><mxGeometry x="1160" y="280" width="120" height="40" as="geometry"/></mxCell><mxCell id="TMf7GeFNpjUwdygxCq6B-149" value="html report" style="rounded=0;whiteSpace=wrap;html=1;fillColor=#f5f5f5;strokeColor=#666666;fontColor=#333333;" parent="1" vertex="1"><mxGeometry x="1880" y="280" width="120" height="40" as="geometry"/></mxCell><mxCell id="101" value="check style" style="rounded=0;whiteSpace=wrap;html=1;" parent="1" vertex="1"><mxGeometry x="1040" y="760" width="120" height="40" as="geometry"/></mxCell><mxCell id="102" value="yarn eslint" style="rounded=0;whiteSpace=wrap;html=1;fillColor=#ffe6cc;strokeColor=#d79b00;" parent="1" vertex="1"><mxGeometry x="1040" y="840" width="120" height="40" as="geometry"/></mxCell><mxCell id="103" value="build docker image and run" style="rounded=0;whiteSpace=wrap;html=1;" parent="1" vertex="1"><mxGeometry x="1200" y="760" width="120" height="40" as="geometry"/></mxCell><mxCell id="104" value="push to docker hub" style="rounded=0;whiteSpace=wrap;html=1;" parent="1" vertex="1"><mxGeometry x="1520" y="760" width="120" height="40" as="geometry"/></mxCell><mxCell id="105" value="docker hub" style="rounded=0;whiteSpace=wrap;html=1;fillColor=#dae8fc;strokeColor=#6c8ebf;" parent="1" vertex="1"><mxGeometry x="1520" y="920" width="120" height="40" as="geometry"/></mxCell><mxCell id="106" value="app-client-1.0" style="rounded=0;whiteSpace=wrap;html=1;fillColor=#d5e8d4;strokeColor=#82b366;" parent="1" vertex="1"><mxGeometry x="1200" y="920" width="120" height="40" as="geometry"/></mxCell><mxCell id="107" value="app-client-1.0 image" style="rounded=0;whiteSpace=wrap;html=1;fillColor=#d5e8d4;strokeColor=#82b366;" parent="1" vertex="1"><mxGeometry x="1520" y="960" width="120" height="40" as="geometry"/></mxCell><mxCell id="108" value="yarn" style="rounded=0;whiteSpace=wrap;html=1;fillColor=#dae8fc;strokeColor=#6c8ebf;" parent="1" vertex="1"><mxGeometry x="1200" y="1000" width="120" height="40" as="geometry"/></mxCell><mxCell id="109" value="node" style="rounded=0;whiteSpace=wrap;html=1;fillColor=#dae8fc;strokeColor=#6c8ebf;" parent="1" vertex="1"><mxGeometry x="1200" y="960" width="120" height="40" as="geometry"/></mxCell><mxCell id="110" value="image repository" style="rounded=0;whiteSpace=wrap;html=1;fillColor=#f5f5f5;strokeColor=#666666;fontColor=#333333;" parent="1" vertex="1"><mxGeometry x="1640" y="920" width="120" height="40" as="geometry"/></mxCell><mxCell id="111" value="docker push" style="rounded=0;whiteSpace=wrap;html=1;fillColor=#ffe6cc;strokeColor=#d79b00;" parent="1" vertex="1"><mxGeometry x="1520" y="840" width="120" height="40" as="geometry"/></mxCell><mxCell id="112" value="docker compose up build" style="rounded=0;whiteSpace=wrap;html=1;fillColor=#ffe6cc;strokeColor=#d79b00;" parent="1" vertex="1"><mxGeometry x="1200" y="840" width="120" height="40" as="geometry"/></mxCell><mxCell id="113" value="functional tests" style="rounded=0;whiteSpace=wrap;html=1;" parent="1" vertex="1"><mxGeometry x="1360" y="760" width="120" height="40" as="geometry"/></mxCell><mxCell id="114" value="mvn functionalTests" style="rounded=0;whiteSpace=wrap;html=1;fillColor=#ffe6cc;strokeColor=#d79b00;" parent="1" vertex="1"><mxGeometry x="1360" y="840" width="120" height="40" as="geometry"/></mxCell><mxCell id="116" value="angular cli" style="rounded=0;whiteSpace=wrap;html=1;fillColor=#dae8fc;strokeColor=#6c8ebf;" parent="1" vertex="1"><mxGeometry x="1200" y="1040" width="120" height="40" as="geometry"/></mxCell><mxCell id="117" value="defines pipelines" style="rounded=0;whiteSpace=wrap;html=1;fillColor=#f5f5f5;strokeColor=#666666;fontColor=#333333;" parent="1" vertex="1"><mxGeometry x="2760" y="520" width="120" height="40" as="geometry"/></mxCell><mxCell id="118" value="groovy sdk" style="rounded=0;whiteSpace=wrap;html=1;fillColor=#dae8fc;strokeColor=#6c8ebf;" parent="1" vertex="1"><mxGeometry x="40" y="600" width="120" height="40" as="geometry"/></mxCell><mxCell id="120" value="used for gradle / Jenkins file" style="rounded=0;whiteSpace=wrap;html=1;fillColor=#f5f5f5;strokeColor=#666666;fontColor=#333333;" parent="1" vertex="1"><mxGeometry x="160" y="600" width="120" height="40" as="geometry"/></mxCell><mxCell id="121" value="run java code" style="rounded=0;whiteSpace=wrap;html=1;fillColor=#f5f5f5;strokeColor=#666666;fontColor=#333333;" parent="1" vertex="1"><mxGeometry x="2760" y="400" width="120" height="40" as="geometry"/></mxCell></root></mxGraphModel></diagram><diagram id="FZi7Fa-ZEV7dpDColfFA" name="training"><mxGraphModel dx="1424" dy="747" grid="1" gridSize="10" guides="1" tooltips="1" connect="1" arrows="1" fold="1" page="1" pageScale="1" pageWidth="850" pageHeight="1100" math="0" shadow="0"><root><mxCell id="j4I4dCcD2vZgciuF7RfC-0"/><mxCell id="j4I4dCcD2vZgciuF7RfC-1" parent="j4I4dCcD2vZgciuF7RfC-0"/><mxCell id="Gw0aptABmnS--Vc45ade-0" value="build" style="rounded=0;whiteSpace=wrap;html=1;" parent="j4I4dCcD2vZgciuF7RfC-1" vertex="1"><mxGeometry x="600" y="80" width="120" height="40" as="geometry"/></mxCell><mxCell id="Gw0aptABmnS--Vc45ade-1" value="run unit tests" style="rounded=0;whiteSpace=wrap;html=1;" parent="j4I4dCcD2vZgciuF7RfC-1" vertex="1"><mxGeometry x="880" y="80" width="120" height="40" as="geometry"/></mxCell><mxCell id="Gw0aptABmnS--Vc45ade-2" value="run integration tests" style="rounded=0;whiteSpace=wrap;html=1;" parent="j4I4dCcD2vZgciuF7RfC-1" vertex="1"><mxGeometry x="1040" y="80" width="120" height="40" as="geometry"/></mxCell><mxCell id="Gw0aptABmnS--Vc45ade-7" value="test env - backend" style="rounded=0;whiteSpace=wrap;html=1;fillColor=#ffcd28;strokeColor=#d79b00;fontStyle=1;gradientColor=#ffa500;shadow=1;" parent="j4I4dCcD2vZgciuF7RfC-1" vertex="1"><mxGeometry x="40" y="20" width="120" height="40" as="geometry"/></mxCell><mxCell id="Gw0aptABmnS--Vc45ade-10" value="app-server-1.0.jar" style="rounded=0;whiteSpace=wrap;html=1;fillColor=#d5e8d4;strokeColor=#82b366;" parent="j4I4dCcD2vZgciuF7RfC-1" vertex="1"><mxGeometry x="600" y="240" width="120" height="40" as="geometry"/></mxCell><mxCell id="Gw0aptABmnS--Vc45ade-13" value="remote" style="rounded=0;whiteSpace=wrap;html=1;" parent="j4I4dCcD2vZgciuF7RfC-1" vertex="1"><mxGeometry x="320" y="80" width="120" height="40" as="geometry"/></mxCell><mxCell id="Gw0aptABmnS--Vc45ade-14" value="local" style="rounded=0;whiteSpace=wrap;html=1;fillColor=#e1d5e7;strokeColor=#9673a6;" parent="j4I4dCcD2vZgciuF7RfC-1" vertex="1"><mxGeometry x="40" y="80" width="120" height="40" as="geometry"/></mxCell><mxCell id="Gw0aptABmnS--Vc45ade-15" value="git local repository" style="rounded=0;whiteSpace=wrap;html=1;fillColor=#dae8fc;strokeColor=#6c8ebf;" parent="j4I4dCcD2vZgciuF7RfC-1" vertex="1"><mxGeometry x="40" y="240" width="120" height="40" as="geometry"/></mxCell><mxCell id="Gw0aptABmnS--Vc45ade-16" value="github repository" style="rounded=0;whiteSpace=wrap;html=1;fillColor=#dae8fc;strokeColor=#6c8ebf;" parent="j4I4dCcD2vZgciuF7RfC-1" vertex="1"><mxGeometry x="320" y="240" width="120" height="40" as="geometry"/></mxCell><mxCell id="Gw0aptABmnS--Vc45ade-39" value="write java code" style="rounded=0;whiteSpace=wrap;html=1;fillColor=#f5f5f5;strokeColor=#666666;fontColor=#333333;" parent="j4I4dCcD2vZgciuF7RfC-1" vertex="1"><mxGeometry x="160" y="360" width="120" height="40" as="geometry"/></mxCell><mxCell id="Gw0aptABmnS--Vc45ade-40" value="database" style="rounded=0;whiteSpace=wrap;html=1;fillColor=#f5f5f5;strokeColor=#666666;fontColor=#333333;" parent="j4I4dCcD2vZgciuF7RfC-1" vertex="1"><mxGeometry x="160" y="400" width="120" height="40" as="geometry"/></mxCell><mxCell id="Gw0aptABmnS--Vc45ade-45" value="code repository" style="rounded=0;whiteSpace=wrap;html=1;fillColor=#f5f5f5;strokeColor=#666666;fontColor=#333333;" parent="j4I4dCcD2vZgciuF7RfC-1" vertex="1"><mxGeometry x="440" y="240" width="120" height="40" as="geometry"/></mxCell><mxCell id="Gw0aptABmnS--Vc45ade-46" value="app-server-1.0 code" style="rounded=0;whiteSpace=wrap;html=1;fillColor=#d5e8d4;strokeColor=#82b366;" parent="j4I4dCcD2vZgciuF7RfC-1" vertex="1"><mxGeometry x="40" y="280" width="120" height="40" as="geometry"/></mxCell><mxCell id="Gw0aptABmnS--Vc45ade-47" value="app-server-1.0 code" style="rounded=0;whiteSpace=wrap;html=1;fillColor=#d5e8d4;strokeColor=#82b366;" parent="j4I4dCcD2vZgciuF7RfC-1" vertex="1"><mxGeometry x="320" y="280" width="120" height="40" as="geometry"/></mxCell><mxCell id="Gw0aptABmnS--Vc45ade-48" value="java archive" style="rounded=0;whiteSpace=wrap;html=1;fillColor=#f5f5f5;strokeColor=#666666;fontColor=#333333;" parent="j4I4dCcD2vZgciuF7RfC-1" vertex="1"><mxGeometry x="720" y="240" width="120" height="40" as="geometry"/></mxCell><mxCell id="Gw0aptABmnS--Vc45ade-50" value="mysql" style="rounded=0;whiteSpace=wrap;html=1;fillColor=#dae8fc;strokeColor=#6c8ebf;" parent="j4I4dCcD2vZgciuF7RfC-1" vertex="1"><mxGeometry x="40" y="400" width="120" height="40" as="geometry"/></mxCell><mxCell id="Gw0aptABmnS--Vc45ade-51" value="java sdk" style="rounded=0;whiteSpace=wrap;html=1;fillColor=#dae8fc;strokeColor=#6c8ebf;" parent="j4I4dCcD2vZgciuF7RfC-1" vertex="1"><mxGeometry x="40" y="360" width="120" height="40" as="geometry"/></mxCell><mxCell id="Gw0aptABmnS--Vc45ade-52" value="version control system" style="rounded=0;whiteSpace=wrap;html=1;fillColor=#f5f5f5;strokeColor=#666666;fontColor=#333333;" parent="j4I4dCcD2vZgciuF7RfC-1" vertex="1"><mxGeometry x="160" y="240" width="120" height="40" as="geometry"/></mxCell><mxCell id="Gw0aptABmnS--Vc45ade-53" value="intellij" style="rounded=0;whiteSpace=wrap;html=1;fillColor=#dae8fc;strokeColor=#6c8ebf;" parent="j4I4dCcD2vZgciuF7RfC-1" vertex="1"><mxGeometry x="40" y="480" width="120" height="40" as="geometry"/></mxCell><mxCell id="Gw0aptABmnS--Vc45ade-54" value="java ide" style="rounded=0;whiteSpace=wrap;html=1;fillColor=#f5f5f5;strokeColor=#666666;fontColor=#333333;" parent="j4I4dCcD2vZgciuF7RfC-1" vertex="1"><mxGeometry x="160" y="480" width="120" height="40" as="geometry"/></mxCell><mxCell id="Gw0aptABmnS--Vc45ade-55" value="maven" style="rounded=0;whiteSpace=wrap;html=1;fillColor=#dae8fc;strokeColor=#6c8ebf;" parent="j4I4dCcD2vZgciuF7RfC-1" vertex="1"><mxGeometry x="40" y="440" width="120" height="40" as="geometry"/></mxCell><mxCell id="Gw0aptABmnS--Vc45ade-56" value="build tool" style="rounded=0;whiteSpace=wrap;html=1;fillColor=#f5f5f5;strokeColor=#666666;fontColor=#333333;" parent="j4I4dCcD2vZgciuF7RfC-1" vertex="1"><mxGeometry x="160" y="440" width="120" height="40" as="geometry"/></mxCell><mxCell id="Gw0aptABmnS--Vc45ade-57" value="mvn test" style="rounded=0;whiteSpace=wrap;html=1;fillColor=#ffe6cc;strokeColor=#d79b00;" parent="j4I4dCcD2vZgciuF7RfC-1" vertex="1"><mxGeometry x="880" y="160" width="120" height="40" as="geometry"/></mxCell><mxCell id="Gw0aptABmnS--Vc45ade-58" value="mvn integrationTest" style="rounded=0;whiteSpace=wrap;html=1;fillColor=#ffe6cc;strokeColor=#d79b00;" parent="j4I4dCcD2vZgciuF7RfC-1" vertex="1"><mxGeometry x="1040" y="160" width="120" height="40" as="geometry"/></mxCell><mxCell id="Gw0aptABmnS--Vc45ade-59" value="mvn clean install" style="rounded=0;whiteSpace=wrap;html=1;fillColor=#ffe6cc;strokeColor=#d79b00;" parent="j4I4dCcD2vZgciuF7RfC-1" vertex="1"><mxGeometry x="600" y="160" width="120" height="40" as="geometry"/></mxCell><mxCell id="Gw0aptABmnS--Vc45ade-63" value="git push" style="rounded=0;whiteSpace=wrap;html=1;fillColor=#ffe6cc;strokeColor=#d79b00;" parent="j4I4dCcD2vZgciuF7RfC-1" vertex="1"><mxGeometry x="320" y="160" width="120" height="40" as="geometry"/></mxCell><mxCell id="Gw0aptABmnS--Vc45ade-64" value="git commit" style="rounded=0;whiteSpace=wrap;html=1;fillColor=#ffe6cc;strokeColor=#d79b00;" parent="j4I4dCcD2vZgciuF7RfC-1" vertex="1"><mxGeometry x="40" y="160" width="120" height="40" as="geometry"/></mxCell><mxCell id="Gw0aptABmnS--Vc45ade-66" value="command" style="rounded=0;whiteSpace=wrap;html=1;fillColor=#ffe6cc;strokeColor=#d79b00;" parent="j4I4dCcD2vZgciuF7RfC-1" vertex="1"><mxGeometry x="590" y="540" width="120" height="40" as="geometry"/></mxCell><mxCell id="Gw0aptABmnS--Vc45ade-67" value="software" style="rounded=0;whiteSpace=wrap;html=1;fillColor=#dae8fc;strokeColor=#6c8ebf;" parent="j4I4dCcD2vZgciuF7RfC-1" vertex="1"><mxGeometry x="590" y="500" width="120" height="40" as="geometry"/></mxCell><mxCell id="Gw0aptABmnS--Vc45ade-68" value="artifact" style="rounded=0;whiteSpace=wrap;html=1;fillColor=#d5e8d4;strokeColor=#82b366;" parent="j4I4dCcD2vZgciuF7RfC-1" vertex="1"><mxGeometry x="590" y="580" width="120" height="40" as="geometry"/></mxCell><mxCell id="Gw0aptABmnS--Vc45ade-69" value="server" style="rounded=0;whiteSpace=wrap;html=1;fillColor=#e1d5e7;strokeColor=#9673a6;" parent="j4I4dCcD2vZgciuF7RfC-1" vertex="1"><mxGeometry x="590" y="460" width="120" height="40" as="geometry"/></mxCell><mxCell id="Gw0aptABmnS--Vc45ade-70" value="legend" style="rounded=0;whiteSpace=wrap;html=1;" parent="j4I4dCcD2vZgciuF7RfC-1" vertex="1"><mxGeometry x="590" y="420" width="120" height="40" as="geometry"/></mxCell><mxCell id="Gw0aptABmnS--Vc45ade-76" value="host software" style="rounded=0;whiteSpace=wrap;html=1;fillColor=#f5f5f5;strokeColor=#666666;fontColor=#333333;" parent="j4I4dCcD2vZgciuF7RfC-1" vertex="1"><mxGeometry x="710" y="460" width="120" height="40" as="geometry"/></mxCell><mxCell id="Gw0aptABmnS--Vc45ade-77" value="run commands" style="rounded=0;whiteSpace=wrap;html=1;fillColor=#f5f5f5;strokeColor=#666666;fontColor=#333333;" parent="j4I4dCcD2vZgciuF7RfC-1" vertex="1"><mxGeometry x="710" y="500" width="120" height="40" as="geometry"/></mxCell><mxCell id="Gw0aptABmnS--Vc45ade-78" value="build artifact" style="rounded=0;whiteSpace=wrap;html=1;fillColor=#f5f5f5;strokeColor=#666666;fontColor=#333333;" parent="j4I4dCcD2vZgciuF7RfC-1" vertex="1"><mxGeometry x="710" y="540" width="120" height="40" as="geometry"/></mxCell></root></mxGraphModel></diagram></mxfile>